<?xml version="1.0" encoding="iso-8859-1"?>
<!-- Generator: Adobe Illustrator 18.0.0, SVG Export Plug-In . SVG Version: 6.00 Build 0)  -->
<!DOCTYPE svg PUBLIC "-//W3C//DTD SVG 1.1//EN" "http://www.w3.org/Graphics/SVG/1.1/DTD/svg11.dtd">
<svg version="1.1" id="Capa_1" xmlns="http://www.w3.org/2000/svg" xmlns:xlink="http://www.w3.org/1999/xlink" x="0px" y="0px"
	 viewBox="0 0 59 59" style="enable-background:new 0 0 59 59;" xml:space="preserve">
<path d="M30.5,29.142V21.88c3.434-0.743,6-5.248,6-10.88c0-6.168-3.075-11-7-11s-7,4.832-7,11c0,5.632,2.566,10.137,6,10.88v7.262
	c-1.72,0.447-3,1.999-3,3.858v22c0,2.206,1.794,4,4,4s4-1.794,4-4V33C33.5,31.141,32.22,29.589,30.5,29.142z M29.5,40
	c-0.55,0-1-0.45-1-1c0-0.55,0.45-1,1-1c0.55,0,1,0.45,1,1C30.5,39.55,30.05,40,29.5,40z M29.5,36c-0.55,0-1-0.45-1-1
	c0-0.55,0.45-1,1-1c0.55,0,1,0.45,1,1C30.5,35.55,30.05,36,29.5,36z"/>
<g>
</g>
<g>
</g>
<g>
</g>
<g>
</g>
<g>
</g>
<g>
</g>
<g>
</g>
<g>
</g>
<g>
</g>
<g>
</g>
<g>
</g>
<g>
</g>
<g>
</g>
<g>
</g>
<g>
</g>
</svg>
